# xmcd
#
# Track frame offsets: 
#        150
#        8435
#        16607
#        27985
#        33780
#        43777
#        55240
#        66982
#        75917
#        86045
#        97292
#        108615
#        120385
#        129612
#        139170
#        151985
#        163910
#        175207
#        184620
#        192440
#        204547
#        211700
#        221950
#        232122
#        244620
#        256472
#        267327
#        277760
#        284377
#        295442
#        305647
#        316785
#
# Disc length: 4357 seconds
#
# Revision: 9
# Processed by: cddbd v1.5.2PL0 Copyright (c) Steve Scherf et al.
# Submitted via: ExactAudioCopy v1.0b1
#
DISCID=cf110320
DTITLE=Johnny Cash - The Man in Black: 1954-1958 [CD1]
DYEAR=1990
DGENRE=Country
TTITLE0=Wide Open Road (acoustic) (mono)
TTITLE1=You're My Baby (mono)
TTITLE2=My Treasure (acoustic) (mono)
TTITLE3=My Treasure (overdub) (mono)
TTITLE4=Hey Porter (alt) (mono)
TTITLE5=Folsom Prison Blues (alt - early version) (mono)
TTITLE6=Wide Open Road (alt) (mono)
TTITLE7=My Two Timin' Woman (mono)
TTITLE8=Hey Porter (mono)
TTITLE9=Cry, Cry, Cry (mono)
TTITLE10=Wide Open Road (mono)
TTITLE11=Port Of Lonely Hearts (mono)
TTITLE12=I Couldn't Keep From Crying (mono)
TTITLE13=New Mexico (mono)
TTITLE14=Folsom Prison Blues (mono)
TTITLE15=So Doggone Lonesome (mono)
TTITLE16=Mean Eyed Cat (mono)
TTITLE17=Luther Played The Boogie (mono)
TTITLE18=Rock And Roll Ruby (mono)
TTITLE19=I Walk The Line (alt) (mono)
TTITLE20=Brakeman's Blues (incomplete) (mono)
TTITLE21=Get Rhythm (alt - practice)
TTITLE22=Get Rhythm (mono)
TTITLE23=I Walk The Line (mono)
TTITLE24=Train of Love (alt) (mono)
TTITLE25=Train of Love (mono)
TTITLE26=There You Go (mono)
TTITLE27=One More Ride (incomplete) (mono)
TTITLE28=I Love You Because (alt - undubbed) (mono)
TTITLE29=Goodbye Little Darlin' (mono)
TTITLE30=I Love You Because (mono)
TTITLE31=Straight A's In Love (mono)
EXTD=
EXTT0=
EXTT1=
EXTT2=
EXTT3=
EXTT4=
EXTT5=
EXTT6=
EXTT7=
EXTT8=
EXTT9=
EXTT10=
EXTT11=
EXTT12=
EXTT13=
EXTT14=
EXTT15=
EXTT16=
EXTT17=
EXTT18=
EXTT19=
EXTT20=
EXTT21=
EXTT22=
EXTT23=
EXTT24=
EXTT25=
EXTT26=
EXTT27=
EXTT28=
EXTT29=
EXTT30=
EXTT31=
PLAYORDER=
